<svg width="30.000000" height="30.000000" viewBox="0 0 30 30" fill="none" xmlns="http://www.w3.org/2000/svg" xmlns:xlink="http://www.w3.org/1999/xlink">
	<desc>
			Created with Pixso.
	</desc>
	<defs/>
	<path id="стрелка" d="M30 15C30 6.71362 23.2863 0 15 0C6.71371 0 0 6.71362 0 15C0 23.2864 6.71371 30 15 30C23.2863 30 30 23.2864 30 15ZM2.90323 15C2.90323 8.31665 8.31653 2.90332 15 2.90332C21.6835 2.90332 27.0968 8.31665 27.0968 15C27.0968 21.6833 21.6835 27.0967 15 27.0967C8.31653 27.0967 2.90323 21.6833 2.90323 15ZM7.25806 16.2097L7.25806 13.7903C7.25806 13.3911 7.58469 13.0645 7.98389 13.0645L15 13.0645L15 9.01221C15 8.36499 15.7802 8.04443 16.2399 8.49805L22.2278 14.4858C22.5121 14.7703 22.5121 15.2297 22.2278 15.5142L16.2399 21.502C15.7802 21.9617 15 21.635 15 20.9878L15 16.9355L7.98389 16.9355C7.58469 16.9355 7.25806 16.6089 7.25806 16.2097Z" fill="#FFFFFF" fill-opacity="1.000000" fill-rule="nonzero"/>
</svg>
