<svg width="30.000000" height="30.000000" viewBox="0 0 30 30" fill="none" xmlns="http://www.w3.org/2000/svg" xmlns:xlink="http://www.w3.org/1999/xlink">
	<desc>
			Created with Pixso.
	</desc>
	<defs/>
	<path d="M30 15C30 6.71375 23.2863 0 15 0C6.71371 0 0 6.71375 0 15C0 23.2863 6.71371 30 15 30C23.2863 30 30 23.2863 30 15ZM2.90323 15C2.90323 8.31653 8.31653 2.9032 15 2.9032C21.6835 2.9032 27.0968 8.31653 27.0968 15C27.0968 21.6835 21.6835 27.0968 15 27.0968C8.31653 27.0968 2.90323 21.6835 2.90323 15ZM7.25806 16.2097L7.25806 13.7903C7.25806 13.3911 7.58468 13.0646 7.98387 13.0646L15 13.0646L15 9.01208C15 8.36487 15.7802 8.04431 16.2399 8.49792L22.2278 14.4858C22.5121 14.7701 22.5121 15.2299 22.2278 15.5142L16.2399 21.5021C15.7802 21.9617 15 21.6351 15 20.9879L15 16.9354L7.98387 16.9354C7.58468 16.9354 7.25806 16.6089 7.25806 16.2097Z" fill="#000000" fill-opacity="1.000000" fill-rule="nonzero"/>
</svg>
