<svg width="392.000000" height="152.000000" viewBox="0 0 392 152" fill="none" xmlns="http://www.w3.org/2000/svg" xmlns:xlink="http://www.w3.org/1999/xlink">
	<desc>
			Created with Pixso.
	</desc>
	<defs/>
	<circle cx="149.000000" cy="70.000000" r="50.000000" fill="#020202" fill-opacity="1.000000"/>
	<path d="M135.768 51.164L133.368 51.164C132.664 49.308 131.928 47.132 131.16 44.636C130.456 42.14 129.848 39.772 129.336 37.532C131.576 35.612 134.264 34.108 137.4 33.02C140.536 31.868 143.928 31.292 147.576 31.292C150.776 31.292 153.528 31.74 155.832 32.636C158.136 33.532 160.024 34.748 161.496 36.284C163.032 37.82 164.152 39.612 164.856 41.66C165.56 43.644 165.912 45.724 165.912 47.9C165.912 51.484 165.08 55.164 163.416 58.94C161.752 62.716 159.672 66.396 157.176 69.98C154.744 73.5 152.088 76.828 149.208 79.964C146.328 83.1 143.672 85.852 141.24 88.22L137.208 91.964L137.208 92.348L142.584 91.772L159.096 91.772L163.8 81.02L166.2 81.02C166.328 82.428 166.456 83.964 166.584 85.628C166.712 87.292 166.808 88.988 166.872 90.716C167 92.38 167.096 94.012 167.16 95.612C167.224 97.148 167.256 98.492 167.256 99.644L127.608 99.644L127.608 96.572C129.016 95.1 130.712 93.308 132.696 91.196C134.744 89.084 136.856 86.748 139.032 84.188C141.208 81.628 143.352 78.908 145.464 76.028C147.64 73.148 149.56 70.236 151.224 67.292C152.888 64.284 154.232 61.308 155.256 58.364C156.344 55.42 156.888 52.604 156.888 49.916C156.888 48.06 156.632 46.3 156.12 44.636C155.672 42.972 154.968 41.532 154.008 40.316C153.048 39.036 151.864 38.044 150.456 37.34C149.112 36.636 147.544 36.284 145.752 36.284C144.408 36.284 143.224 36.38 142.2 36.572C141.176 36.764 140.056 37.052 138.84 37.436L135.768 51.164Z" fill="#FFFFFF" fill-opacity="1.000000" fill-rule="evenodd"/>
	<path d="M1.44 53.948C3.872 52.412 6.432 51.324 9.12 50.684L9.12 42.524C9.952 41.82 10.912 41.212 12 40.7C13.152 40.124 14.272 39.58 15.36 39.068L17.76 39.068L17.76 51.644L32.16 51.644L32.16 56.444L17.76 56.444L17.76 84.284C17.76 88.124 18.368 90.844 19.584 92.444C20.8 94.044 22.624 94.844 25.056 94.844C26.208 94.844 27.648 94.78 29.376 94.652C31.104 94.46 32.576 94.14 33.792 93.692L34.464 95.132C33.952 95.708 33.216 96.316 32.256 96.956C31.36 97.596 30.304 98.204 29.088 98.78C27.936 99.356 26.656 99.836 25.248 100.22C23.84 100.604 22.4 100.796 20.928 100.796C17.088 100.796 14.144 99.708 12.096 97.532C10.112 95.356 9.12 91.836 9.12 86.972L9.12 56.444L1.44 56.444L1.44 53.948ZM39.561 75.644C39.561 71.612 40.073 68.06 41.097 64.988C42.185 61.852 43.721 59.228 45.705 57.116C47.689 54.94 50.057 53.308 52.809 52.22C55.625 51.068 58.729 50.492 62.121 50.492C66.089 50.492 69.513 51.1 72.393 52.316C75.273 53.532 77.609 55.26 79.401 57.5C81.257 59.676 82.601 62.3 83.433 65.372C84.329 68.444 84.777 71.868 84.777 75.644C84.777 83.708 82.729 89.916 78.633 94.268C74.537 98.62 69.033 100.796 62.121 100.796C58.281 100.796 54.953 100.22 52.137 99.068C49.321 97.852 46.985 96.156 45.129 93.98C43.273 91.74 41.865 89.084 40.905 86.012C40.009 82.876 39.561 79.42 39.561 75.644ZM48.777 75.644C48.777 78.524 49.033 81.244 49.545 83.804C50.121 86.364 50.985 88.604 52.137 90.524C53.353 92.38 54.921 93.852 56.841 94.94C58.761 96.028 61.065 96.572 63.753 96.572C67.209 96.572 70.025 94.876 72.201 91.484C74.441 88.092 75.561 82.812 75.561 75.644C75.561 72.7 75.273 69.98 74.697 67.484C74.185 64.924 73.353 62.716 72.201 60.86C71.049 58.94 69.577 57.436 67.785 56.348C65.993 55.26 63.849 54.716 61.353 54.716C57.577 54.716 54.537 56.412 52.233 59.804C49.929 63.196 48.777 68.476 48.777 75.644ZM228.83 58.844C228.126 59.228 227.23 60.028 226.142 61.244C225.118 62.396 224.19 64.124 223.358 66.428L223.358 94.94C224.638 95.068 225.918 95.324 227.198 95.708C228.478 96.028 229.758 96.54 231.038 97.244L231.038 99.644L208.382 99.644L208.382 97.244C209.534 96.604 210.622 96.124 211.646 95.804C212.67 95.484 213.694 95.196 214.718 94.94L214.718 57.212L208.382 56.444L208.382 53.948C210.43 53.052 212.542 52.348 214.718 51.836C216.894 51.26 218.974 50.812 220.958 50.492L223.358 50.492L223.358 60.668L223.742 60.668C224.318 59.388 225.118 58.108 226.142 56.828C227.23 55.548 228.446 54.396 229.79 53.372C231.198 52.348 232.702 51.58 234.302 51.068C235.966 50.492 237.662 50.3 239.39 50.492C239.838 51.324 240.222 52.252 240.542 53.276C240.926 54.236 241.278 55.26 241.598 56.348L241.598 58.844L228.83 58.844ZM285.066 92.924C284.554 94.012 283.754 95.036 282.666 95.996C281.578 96.956 280.33 97.788 278.922 98.492C277.514 99.196 275.978 99.74 274.314 100.124C272.65 100.572 270.954 100.796 269.226 100.796C265.45 100.796 262.122 100.22 259.242 99.068C256.362 97.852 253.962 96.156 252.042 93.98C250.122 91.74 248.65 89.084 247.626 86.012C246.666 82.94 246.186 79.484 246.186 75.644C246.186 67.452 248.074 61.212 251.85 56.924C255.626 52.636 260.97 50.492 267.882 50.492C270.122 50.492 272.33 50.812 274.506 51.452C276.682 52.028 278.602 53.02 280.266 54.428C281.994 55.836 283.37 57.724 284.394 60.092C285.482 62.396 286.026 65.276 286.026 68.732C286.026 69.82 285.962 70.94 285.834 72.092C285.77 73.18 285.61 74.364 285.354 75.644L255.402 75.644C255.402 78.332 255.722 80.86 256.362 83.228C257.066 85.532 258.09 87.548 259.434 89.276C260.778 91.004 262.474 92.38 264.522 93.404C266.57 94.364 268.97 94.844 271.722 94.844C273.962 94.844 276.234 94.524 278.538 93.884C280.842 93.244 282.57 92.412 283.722 91.388L285.066 92.924ZM267.498 54.716C263.85 54.716 261.066 55.964 259.146 58.46C257.226 60.892 256.074 65.212 255.69 71.42L276.81 71.42C276.874 70.844 276.906 70.3 276.906 69.788C276.97 69.212 277.002 68.668 277.002 68.156C277.002 64.06 276.234 60.796 274.698 58.364C273.162 55.932 270.762 54.716 267.498 54.716ZM345.923 99.644L325.283 99.644L325.283 97.244C327.011 96.348 328.899 95.58 330.947 94.94L330.947 72.188C330.947 67.324 330.243 63.484 328.835 60.668C327.427 57.852 324.867 56.444 321.155 56.444C319.555 56.444 318.051 56.732 316.643 57.308C315.299 57.884 314.083 58.684 312.995 59.708C311.971 60.668 311.075 61.788 310.307 63.068C309.539 64.284 308.931 65.564 308.483 66.908L308.483 94.94C310.467 95.324 312.387 96.092 314.243 97.244L314.243 99.644L293.507 99.644L293.507 97.244C295.107 96.412 297.219 95.644 299.843 94.94L299.843 57.212L293.507 56.444L293.507 53.948C295.171 53.244 297.091 52.604 299.267 52.028C301.443 51.452 303.715 50.94 306.083 50.492L308.483 50.492L308.483 61.244L308.579 61.244C309.923 58.3 311.843 55.772 314.339 53.66C316.899 51.548 319.971 50.492 323.555 50.492C326.115 50.492 328.387 50.812 330.371 51.452C332.419 52.028 334.115 53.084 335.459 54.62C336.803 56.156 337.827 58.236 338.531 60.86C339.235 63.42 339.587 66.684 339.587 70.652L339.587 94.94C342.147 95.388 344.259 96.156 345.923 97.244L345.923 99.644ZM348.971 53.948C351.403 52.412 353.963 51.324 356.651 50.684L356.651 42.524C357.483 41.82 358.443 41.212 359.531 40.7C360.683 40.124 361.803 39.58 362.891 39.068L365.291 39.068L365.291 51.644L379.691 51.644L379.691 56.444L365.291 56.444L365.291 84.284C365.291 88.124 365.899 90.844 367.115 92.444C368.331 94.044 370.155 94.844 372.587 94.844C373.739 94.844 375.179 94.78 376.907 94.652C378.635 94.46 380.107 94.14 381.323 93.692L381.995 95.132C381.483 95.708 380.747 96.316 379.787 96.956C378.891 97.596 377.835 98.204 376.619 98.78C375.467 99.356 374.187 99.836 372.779 100.22C371.371 100.604 369.931 100.796 368.459 100.796C364.619 100.796 361.675 99.708 359.627 97.532C357.643 95.356 356.651 91.836 356.651 86.972L356.651 56.444L348.971 56.444L348.971 53.948Z" fill="#888888" fill-opacity="1.000000" fill-rule="evenodd"/>
	<path d="M201.16 145.036L200.08 148.588L199.456 148.588C199.376 147.804 199.312 147.012 199.264 146.212C199.232 145.412 199.216 144.628 199.216 143.86L200.848 143.86C201.04 143.636 201.256 143.284 201.496 142.804C201.736 142.324 201.96 141.708 202.168 140.956C202.392 140.188 202.576 139.276 202.72 138.22C202.88 137.148 202.96 135.9 202.96 134.476C202.624 134.38 202.32 134.26 202.048 134.116C201.776 133.972 201.528 133.82 201.304 133.66L201.304 133.036L211.504 133.036L211.504 133.66C211.072 133.948 210.544 134.14 209.92 134.236L209.92 143.86L212.056 143.86C212.072 144.628 212.056 145.412 212.008 146.212C211.96 147.012 211.888 147.804 211.792 148.588L211.192 148.588L210.112 145.036L201.16 145.036ZM204.28 134.236C204.28 135.676 204.208 136.932 204.064 138.004C203.92 139.076 203.744 139.996 203.536 140.764C203.344 141.516 203.136 142.148 202.912 142.66C202.688 143.156 202.488 143.556 202.312 143.86L207.76 143.86L207.76 134.236L204.28 134.236ZM213.742 139.036C213.742 138.028 213.87 137.14 214.126 136.372C214.398 135.588 214.782 134.932 215.278 134.404C215.774 133.86 216.366 133.452 217.054 133.18C217.758 132.892 218.534 132.748 219.382 132.748C220.374 132.748 221.23 132.9 221.95 133.204C222.67 133.508 223.254 133.94 223.702 134.5C224.166 135.044 224.502 135.7 224.71 136.468C224.934 137.236 225.046 138.092 225.046 139.036C225.046 141.052 224.534 142.604 223.51 143.692C222.486 144.78 221.11 145.324 219.382 145.324C218.422 145.324 217.59 145.18 216.886 144.892C216.182 144.588 215.598 144.164 215.134 143.62C214.67 143.06 214.318 142.396 214.078 141.628C213.854 140.844 213.742 139.98 213.742 139.036ZM216.046 139.036C216.046 139.756 216.11 140.436 216.238 141.076C216.382 141.716 216.598 142.276 216.886 142.756C217.19 143.22 217.582 143.588 218.062 143.86C218.542 144.132 219.118 144.268 219.79 144.268C220.654 144.268 221.358 143.844 221.902 142.996C222.462 142.148 222.742 140.828 222.742 139.036C222.742 138.3 222.67 137.62 222.526 136.996C222.398 136.356 222.19 135.804 221.902 135.34C221.614 134.86 221.246 134.484 220.798 134.212C220.35 133.94 219.814 133.804 219.19 133.804C218.246 133.804 217.486 134.228 216.91 135.076C216.334 135.924 216.046 137.244 216.046 139.036ZM230.991 145.036L226.767 145.036L226.767 144.436C227.295 144.18 227.823 143.988 228.351 143.86L228.711 134.476C228.375 134.348 228.079 134.212 227.823 134.068C227.567 133.924 227.335 133.788 227.127 133.66L227.127 133.036L231.807 133.036L234.279 140.044L234.735 141.7L234.807 141.7L235.311 140.02L237.879 133.036L242.415 133.036L242.415 133.66C242.207 133.788 241.975 133.9 241.719 133.996C241.463 134.092 241.167 134.172 240.831 134.236L241.311 143.86C241.839 143.956 242.367 144.148 242.895 144.436L242.895 145.036L237.807 145.036L237.807 144.436C237.967 144.356 238.159 144.268 238.383 144.172C238.607 144.076 238.895 143.972 239.247 143.86L238.767 134.14L238.575 134.14L234.639 145.036L233.991 145.036L230.103 134.14L229.911 134.14L229.551 143.86C230.127 144.036 230.607 144.228 230.991 144.436L230.991 145.036ZM253.488 141.892C253.488 142.244 253.496 142.548 253.512 142.804C253.528 143.06 253.544 143.332 253.56 143.62L255.216 143.86L255.216 144.364C254.816 144.572 254.368 144.756 253.872 144.916C253.392 145.076 252.928 145.196 252.48 145.276L251.88 145.276C251.72 144.908 251.624 144.508 251.592 144.076C251.56 143.628 251.536 143.14 251.52 142.612L251.4 142.612C251.336 142.932 251.208 143.26 251.016 143.596C250.84 143.916 250.6 144.204 250.296 144.46C250.008 144.716 249.664 144.924 249.264 145.084C248.864 145.244 248.408 145.324 247.896 145.324C246.92 145.324 246.12 145.028 245.496 144.436C244.888 143.844 244.584 143.068 244.584 142.108C244.584 141.372 244.728 140.772 245.016 140.308C245.32 139.828 245.76 139.452 246.336 139.18C246.912 138.908 247.624 138.716 248.472 138.604C249.32 138.476 250.304 138.38 251.424 138.316C251.488 137.628 251.504 137.012 251.472 136.468C251.456 135.908 251.368 135.436 251.208 135.052C251.064 134.652 250.84 134.348 250.536 134.14C250.248 133.916 249.864 133.804 249.384 133.804C249.16 133.804 248.904 133.82 248.616 133.852C248.344 133.868 248.072 133.932 247.8 134.044L246.672 136.924L246.048 136.924C245.888 136.444 245.744 135.948 245.616 135.436C245.504 134.924 245.432 134.42 245.4 133.924C246.008 133.556 246.68 133.268 247.416 133.06C248.168 132.852 249 132.748 249.912 132.748C250.728 132.748 251.376 132.868 251.856 133.108C252.352 133.332 252.728 133.628 252.984 133.996C253.24 134.364 253.408 134.772 253.488 135.22C253.568 135.668 253.608 136.116 253.608 136.564C253.608 137.524 253.584 138.452 253.536 139.348C253.504 140.228 253.488 141.076 253.488 141.892ZM248.856 143.836C249.256 143.836 249.608 143.756 249.912 143.596C250.216 143.436 250.472 143.244 250.68 143.02C250.888 142.796 251.056 142.572 251.184 142.348C251.312 142.108 251.4 141.908 251.448 141.748L251.448 139.228C250.52 139.228 249.76 139.276 249.168 139.372C248.576 139.468 248.112 139.62 247.776 139.828C247.44 140.036 247.208 140.3 247.08 140.62C246.952 140.924 246.888 141.276 246.888 141.676C246.888 142.364 247.064 142.9 247.416 143.284C247.768 143.652 248.248 143.836 248.856 143.836ZM262.538 133.036L267.626 133.036L267.626 133.66C267.45 133.756 267.242 133.852 267.002 133.948C266.778 134.044 266.506 134.14 266.186 134.236L266.186 140.812L265.922 143.044L266.042 143.044L266.978 141.244L272.114 133.036L275.354 133.036L275.354 133.66C274.842 133.948 274.314 134.14 273.77 134.236L273.77 143.86C274.074 143.94 274.362 144.028 274.634 144.124C274.906 144.204 275.146 144.308 275.354 144.436L275.354 145.036L270.266 145.036L270.266 144.436C270.714 144.18 271.194 143.988 271.706 143.86L271.706 136.996L271.946 135.1L271.826 135.1L270.914 136.9L265.826 145.036L262.538 145.036L262.538 144.436C262.81 144.308 263.074 144.204 263.33 144.124C263.586 144.028 263.85 143.94 264.122 143.86L264.122 134.236C263.498 134.14 262.97 133.948 262.538 133.66L262.538 133.036ZM289.933 133.036L294.565 133.036L294.565 133.66C294.405 133.788 294.189 133.9 293.917 133.996C293.661 134.092 293.341 134.204 292.957 134.332C292.413 134.988 291.837 135.652 291.229 136.324C290.621 136.996 289.981 137.668 289.309 138.34C289.661 138.724 290.029 139.148 290.413 139.612C290.813 140.076 291.213 140.556 291.613 141.052C292.013 141.548 292.413 142.036 292.813 142.516C293.213 142.996 293.605 143.444 293.989 143.86L295.117 144.436L295.117 145.036L292.309 145.036L291.541 144.484C290.821 143.62 290.165 142.756 289.573 141.892C288.981 141.028 288.381 140.18 287.773 139.348L286.813 139.348L286.813 143.86C287.133 143.94 287.421 144.028 287.677 144.124C287.949 144.204 288.181 144.308 288.373 144.436L288.373 145.036L283.069 145.036L283.069 144.436C283.501 144.18 284.029 143.988 284.653 143.86L284.653 134.236C284.093 134.124 283.565 133.932 283.069 133.66L283.069 133.036L287.989 133.036L287.989 133.66C287.829 133.772 287.653 133.876 287.461 133.972C287.285 134.068 287.069 134.156 286.813 134.236L286.813 138.724L287.917 138.484C288.557 137.748 289.165 137.06 289.741 136.42C290.317 135.78 290.853 135.084 291.349 134.332C291.077 134.22 290.821 134.116 290.581 134.02C290.357 133.908 290.141 133.788 289.933 133.66L289.933 133.036ZM306.661 141.532C306.661 142.172 306.517 142.724 306.229 143.188C305.941 143.636 305.549 144.004 305.053 144.292C304.573 144.58 304.013 144.796 303.373 144.94C302.733 145.068 302.061 145.132 301.357 145.132C300.845 145.132 300.437 145.124 300.133 145.108C299.829 145.108 299.573 145.1 299.365 145.084C299.157 145.068 298.981 145.052 298.837 145.036C298.693 145.036 298.533 145.036 298.357 145.036L296.053 145.036L296.053 144.436C296.549 144.18 297.077 143.988 297.637 143.86L297.637 134.236C297.029 134.124 296.501 133.932 296.053 133.66L296.053 133.036L298.213 133.036C298.597 133.036 298.925 133.036 299.197 133.036C299.469 133.02 299.725 133.004 299.965 132.988C300.205 132.972 300.445 132.964 300.685 132.964C300.925 132.948 301.189 132.94 301.477 132.94C302.885 132.94 303.981 133.156 304.765 133.588C305.549 134.004 305.941 134.74 305.941 135.796C305.941 136.18 305.861 136.524 305.701 136.828C305.541 137.132 305.333 137.396 305.077 137.62C304.821 137.844 304.533 138.036 304.213 138.196C303.893 138.34 303.581 138.444 303.277 138.508C303.725 138.54 304.149 138.628 304.549 138.772C304.965 138.916 305.325 139.116 305.629 139.372C305.949 139.612 306.197 139.916 306.373 140.284C306.565 140.636 306.661 141.052 306.661 141.532ZM299.797 144.004C300.021 144.052 300.301 144.076 300.637 144.076C300.989 144.076 301.277 144.076 301.501 144.076C302.445 144.076 303.149 143.876 303.613 143.476C304.077 143.06 304.309 142.476 304.309 141.724C304.309 140.94 304.029 140.356 303.469 139.972C302.909 139.572 302.189 139.372 301.309 139.372L299.797 139.372L299.797 144.004ZM299.797 138.652L302.461 138.412C302.749 138.268 303.037 138.004 303.325 137.62C303.629 137.22 303.781 136.7 303.781 136.06C303.781 135.276 303.541 134.74 303.061 134.452C302.597 134.148 301.909 133.996 300.997 133.996C300.821 133.996 300.621 134.004 300.397 134.02C300.173 134.02 299.973 134.044 299.797 134.092L299.797 138.652ZM317.637 141.892C317.637 142.244 317.645 142.548 317.661 142.804C317.677 143.06 317.693 143.332 317.709 143.62L319.365 143.86L319.365 144.364C318.965 144.572 318.517 144.756 318.021 144.916C317.541 145.076 317.077 145.196 316.629 145.276L316.029 145.276C315.869 144.908 315.773 144.508 315.741 144.076C315.709 143.628 315.685 143.14 315.669 142.612L315.549 142.612C315.485 142.932 315.357 143.26 315.165 143.596C314.989 143.916 314.749 144.204 314.445 144.46C314.157 144.716 313.813 144.924 313.413 145.084C313.013 145.244 312.557 145.324 312.045 145.324C311.069 145.324 310.269 145.028 309.645 144.436C309.037 143.844 308.733 143.068 308.733 142.108C308.733 141.372 308.877 140.772 309.165 140.308C309.469 139.828 309.909 139.452 310.485 139.18C311.061 138.908 311.773 138.716 312.621 138.604C313.469 138.476 314.453 138.38 315.573 138.316C315.637 137.628 315.653 137.012 315.621 136.468C315.605 135.908 315.517 135.436 315.357 135.052C315.213 134.652 314.989 134.348 314.685 134.14C314.397 133.916 314.013 133.804 313.533 133.804C313.309 133.804 313.053 133.82 312.765 133.852C312.493 133.868 312.221 133.932 311.949 134.044L310.821 136.924L310.197 136.924C310.037 136.444 309.893 135.948 309.765 135.436C309.653 134.924 309.581 134.42 309.549 133.924C310.157 133.556 310.829 133.268 311.565 133.06C312.317 132.852 313.149 132.748 314.061 132.748C314.877 132.748 315.525 132.868 316.005 133.108C316.501 133.332 316.877 133.628 317.133 133.996C317.389 134.364 317.557 134.772 317.637 135.22C317.717 135.668 317.757 136.116 317.757 136.564C317.757 137.524 317.733 138.452 317.685 139.348C317.653 140.228 317.637 141.076 317.637 141.892ZM313.005 143.836C313.405 143.836 313.757 143.756 314.061 143.596C314.365 143.436 314.621 143.244 314.829 143.02C315.037 142.796 315.205 142.572 315.333 142.348C315.461 142.108 315.549 141.908 315.597 141.748L315.597 139.228C314.669 139.228 313.909 139.276 313.317 139.372C312.725 139.468 312.261 139.62 311.925 139.828C311.589 140.036 311.357 140.3 311.229 140.62C311.101 140.924 311.037 141.276 311.037 141.676C311.037 142.364 311.213 142.9 311.565 143.284C311.917 143.652 312.397 143.836 313.005 143.836ZM325.986 149.836L320.658 149.836L320.658 149.236C321.202 148.98 321.73 148.788 322.242 148.66L322.242 134.428L320.658 134.236L320.658 133.612C321.17 133.388 321.69 133.212 322.218 133.084C322.762 132.94 323.29 132.828 323.802 132.748L324.402 132.748L324.402 135.436L324.426 135.436C324.746 134.62 325.194 133.972 325.77 133.492C326.346 132.996 327.098 132.748 328.026 132.748C329.45 132.748 330.554 133.22 331.338 134.164C332.122 135.108 332.514 136.644 332.514 138.772C332.514 139.78 332.378 140.692 332.106 141.508C331.85 142.324 331.474 143.012 330.978 143.572C330.498 144.132 329.906 144.564 329.202 144.868C328.514 145.172 327.746 145.324 326.898 145.324C326.306 145.324 325.842 145.284 325.506 145.204C325.17 145.14 324.802 145.02 324.402 144.844L324.402 148.66C324.658 148.692 324.914 148.748 325.17 148.828C325.426 148.924 325.698 149.06 325.986 149.236L325.986 149.836ZM327.258 134.236C326.474 134.236 325.85 134.484 325.386 134.98C324.922 135.476 324.594 136.156 324.402 137.02L324.402 143.74C324.69 143.916 325.01 144.052 325.362 144.148C325.73 144.228 326.202 144.268 326.778 144.268C327.306 144.268 327.778 144.132 328.194 143.86C328.626 143.588 328.986 143.204 329.274 142.708C329.578 142.212 329.81 141.636 329.97 140.98C330.13 140.308 330.21 139.572 330.21 138.772C330.21 138.116 330.154 137.516 330.042 136.972C329.946 136.412 329.778 135.932 329.538 135.532C329.314 135.116 329.01 134.796 328.626 134.572C328.258 134.348 327.802 134.236 327.258 134.236ZM341.725 145.036L336.397 145.036L336.397 144.436C336.893 144.18 337.421 143.988 337.981 143.86L337.981 134.092L335.749 134.092L334.693 136.972L334.069 136.972C333.989 136.284 333.925 135.612 333.877 134.956C333.829 134.284 333.797 133.644 333.781 133.036L344.341 133.036C344.325 133.612 344.293 134.244 344.245 134.932C344.213 135.604 344.149 136.284 344.053 136.972L343.429 136.972L342.373 134.092L340.141 134.092L340.141 143.86C340.893 144.052 341.421 144.244 341.725 144.436L341.725 145.036ZM345.952 133.036L351.04 133.036L351.04 133.66C350.864 133.756 350.656 133.852 350.416 133.948C350.192 134.044 349.92 134.14 349.6 134.236L349.6 140.812L349.336 143.044L349.456 143.044L350.392 141.244L355.528 133.036L358.768 133.036L358.768 133.66C358.256 133.948 357.728 134.14 357.184 134.236L357.184 143.86C357.488 143.94 357.776 144.028 358.048 144.124C358.32 144.204 358.56 144.308 358.768 144.436L358.768 145.036L353.68 145.036L353.68 144.436C354.128 144.18 354.608 143.988 355.12 143.86L355.12 136.996L355.36 135.1L355.24 135.1L354.328 136.9L349.24 145.036L345.952 145.036L345.952 144.436C346.224 144.308 346.488 144.204 346.744 144.124C347 144.028 347.264 143.94 347.536 143.86L347.536 134.236C346.912 134.14 346.384 133.948 345.952 133.66L345.952 133.036ZM365.783 149.836L360.455 149.836L360.455 149.236C360.999 148.98 361.527 148.788 362.039 148.66L362.039 134.428L360.455 134.236L360.455 133.612C360.967 133.388 361.487 133.212 362.015 133.084C362.559 132.94 363.087 132.828 363.599 132.748L364.199 132.748L364.199 135.436L364.223 135.436C364.543 134.62 364.991 133.972 365.567 133.492C366.143 132.996 366.895 132.748 367.823 132.748C369.247 132.748 370.351 133.22 371.135 134.164C371.919 135.108 372.311 136.644 372.311 138.772C372.311 139.78 372.175 140.692 371.903 141.508C371.647 142.324 371.271 143.012 370.775 143.572C370.295 144.132 369.703 144.564 368.999 144.868C368.311 145.172 367.543 145.324 366.695 145.324C366.103 145.324 365.639 145.284 365.303 145.204C364.967 145.14 364.599 145.02 364.199 144.844L364.199 148.66C364.455 148.692 364.711 148.748 364.967 148.828C365.223 148.924 365.495 149.06 365.783 149.236L365.783 149.836ZM367.055 134.236C366.271 134.236 365.647 134.484 365.183 134.98C364.719 135.476 364.391 136.156 364.199 137.02L364.199 143.74C364.487 143.916 364.807 144.052 365.159 144.148C365.527 144.228 365.999 144.268 366.575 144.268C367.103 144.268 367.575 144.132 367.991 143.86C368.423 143.588 368.783 143.204 369.071 142.708C369.375 142.212 369.607 141.636 369.767 140.98C369.927 140.308 370.007 139.572 370.007 138.772C370.007 138.116 369.951 137.516 369.839 136.972C369.743 136.412 369.575 135.932 369.335 135.532C369.111 135.116 368.807 134.796 368.423 134.572C368.055 134.348 367.599 134.236 367.055 134.236ZM377.985 137.932C378.257 137.9 378.561 137.86 378.897 137.812C379.233 137.764 379.721 137.74 380.361 137.74C381.561 137.74 382.521 138.02 383.241 138.58C383.977 139.14 384.345 140.02 384.345 141.22C384.345 141.86 384.225 142.428 383.985 142.924C383.761 143.404 383.441 143.812 383.025 144.148C382.609 144.468 382.113 144.716 381.537 144.892C380.961 145.052 380.329 145.132 379.641 145.132C379.209 145.132 378.721 145.116 378.177 145.084C377.649 145.052 377.081 145.036 376.473 145.036L374.241 145.036L374.241 144.436C374.513 144.276 374.777 144.156 375.033 144.076C375.289 143.996 375.553 143.924 375.825 143.86L375.825 134.236C375.521 134.188 375.241 134.116 374.985 134.02C374.729 133.908 374.481 133.788 374.241 133.66L374.241 133.036L379.425 133.036L379.425 133.66C379.057 133.884 378.577 134.076 377.985 134.236L377.985 137.932ZM377.985 144.004C378.193 144.02 378.401 144.036 378.609 144.052C378.817 144.068 379.033 144.076 379.257 144.076C381.065 144.076 381.969 143.116 381.969 141.196C381.969 140.748 381.897 140.372 381.753 140.068C381.625 139.748 381.441 139.5 381.201 139.324C380.977 139.132 380.713 138.996 380.409 138.916C380.105 138.836 379.785 138.796 379.449 138.796C379.225 138.796 378.985 138.804 378.729 138.82C378.473 138.82 378.225 138.844 377.985 138.892L377.985 144.004ZM390.273 145.036L385.113 145.036L385.113 144.436C385.337 144.324 385.561 144.22 385.785 144.124C386.009 144.028 386.257 143.94 386.529 143.86L386.529 134.236C385.921 134.124 385.441 133.932 385.089 133.66L385.089 133.036L390.273 133.036L390.273 133.66C390.081 133.788 389.849 133.9 389.577 133.996C389.305 134.076 389.009 134.156 388.689 134.236L388.689 143.86C388.961 143.94 389.225 144.028 389.481 144.124C389.737 144.204 390.001 144.308 390.273 144.436L390.273 145.036Z" fill="#888888" fill-opacity="1.000000" fill-rule="evenodd"/>
</svg>
