<svg width="67.812500" height="67.812500" viewBox="0 0 67.8125 67.8125" fill="none" xmlns="http://www.w3.org/2000/svg" xmlns:xlink="http://www.w3.org/1999/xlink">
	<desc>
			Created with Pixso.
	</desc>
	<defs/>
	<path d="M33.9062 67.8125C52.6367 67.8125 67.8125 52.6367 67.8125 33.9062C67.8125 15.1758 52.6367 0 33.9062 0C15.1758 0 0 15.1758 0 33.9062C0 52.6367 15.1758 67.8125 33.9062 67.8125ZM18.0469 27.8906L33.9062 27.8906L33.9062 18.1973C33.9062 16.7344 35.6836 15.9961 36.709 17.0352L52.3359 32.7441C52.9785 33.3867 52.9785 34.4121 52.3359 35.0547L36.709 50.7773C35.6699 51.8164 33.9062 51.0781 33.9062 49.6152L33.9062 39.9219L18.0469 39.9219C17.1445 39.9219 16.4062 39.1836 16.4062 38.2812L16.4062 29.5312C16.4062 28.6289 17.1445 27.8906 18.0469 27.8906Z" fill="#000000" fill-opacity="1.000000" fill-rule="nonzero"/>
</svg>
