<svg width="67.812500" height="67.812500" viewBox="0 0 67.8125 67.8125" fill="none" xmlns="http://www.w3.org/2000/svg" xmlns:xlink="http://www.w3.org/1999/xlink">
	<desc>
			Created with Pixso.
	</desc>
	<defs/>
	<path id="стрелка слайдер" d="M33.9062 0C15.1758 0 0 15.1758 0 33.9062C0 52.6367 15.1758 67.8125 33.9062 67.8125C52.6367 67.8125 67.8125 52.6367 67.8125 33.9062C67.8125 15.1758 52.6367 0 33.9062 0ZM49.7656 39.9219L33.9062 39.9219L33.9062 49.6152C33.9062 51.0781 32.1289 51.8164 31.1035 50.7773L15.4766 35.0684C14.834 34.4258 14.834 33.4004 15.4766 32.7578L31.1035 17.0352C32.1426 15.9961 33.9062 16.7344 33.9062 18.1973L33.9062 27.8906L49.7656 27.8906C50.668 27.8906 51.4062 28.6289 51.4062 29.5312L51.4062 38.2812C51.4062 39.1836 50.668 39.9219 49.7656 39.9219Z" fill="#000000" fill-opacity="1.000000" fill-rule="nonzero"/>
</svg>
