<svg width="18.044495" height="17.955292" viewBox="0 0 18.0445 17.9553" fill="none" xmlns="http://www.w3.org/2000/svg" xmlns:xlink="http://www.w3.org/1999/xlink">
	<desc>
			Created with Pixso.
	</desc>
	<defs/>
	<path d="M15.6147 17.7135L12.0923 14.2259C11.9333 14.0685 11.8444 13.8544 11.8433 13.6294L11.8403 13.0563C10.6044 14.033 9.04651 14.6174 7.34863 14.626C3.30963 14.6463 0.0204468 11.3896 0.00012207 7.34987C-0.0202637 3.31017 3.23596 0.0204315 7.27496 9.15527e-05C11.314 -0.0202637 14.6031 3.23648 14.6235 7.27618C14.632 8.97433 14.0634 10.5383 13.0995 11.7843L13.6724 11.7814C13.8974 11.7802 14.1123 11.8671 14.2713 12.0245L17.7936 15.5121C18.1257 15.8409 18.1284 16.3753 17.7996 16.704L16.8098 17.7039C16.4811 18.0361 15.9468 18.0388 15.6147 17.7135ZM11.8113 7.29036C11.7988 4.80466 9.77789 2.80022 7.28912 2.81276C4.80383 2.82527 2.79974 4.84648 2.81232 7.33569C2.82483 9.8214 4.8457 11.8258 7.33447 11.8133C9.81976 11.8008 11.8239 9.77957 11.8113 7.29036Z" fill="#FFFFFF" fill-opacity="1.000000" fill-rule="nonzero"/>
</svg>
